<?xml version="1.0" encoding="UTF-8"?>
<!DOCTYPE svg PUBLIC "-//W3C//DTD SVG 1.0//EN" "http://www.w3.org/TR/2001/REC-SVG-20010904/DTD/svg10.dtd">
<svg version="1.0" xmlns="http://www.w3.org/2000/svg" width="859px" height="859px" viewBox="0 0 859 859" preserveAspectRatio="xMidYMid meet">
 <g fill="#fffcfb" fill-rule="evenodd">
  <path d="M0 429.5 L0 0 429.5 0 L859 0 859 429.5 L859 859 429.5 859 L0 859 0 429.5 M327.2 855.1 C301 852.4 280.4 846.7 259.6 836.4 C213.2 813.2 178.2 772.9 162.1 724.1 C156.7 707.9 154 693.6 152.9 675.5 C152.4 667.2 152 598.9 152 523.7 L152 387 99.2 386.9 C69.2 386.9 43.4 386.5 39.5 385.9 C35.6 385.3 30.1 383.8 27.2 382.5 C20.6 379.5 12.1 371.5 8.6 365.1 C2.7 354.1 2.9 362.7 3 195 C3 65.6 3.2 40.5 4.4 35.4 C7.6 22 16.7 11.7 30.5 6.2 L37.5 3.5 195 3.5 L352.5 3.5 358.2 5.8 C367.4 9.5 377 17.7 381.1 25.3 C386.4 35.3 386.1 27.1 386.4 187 C386.6 268.6 386.5 340 386.1 345.5 C385.5 353.1 384.8 356.8 382.7 361.2 C377.6 372.2 369.3 380.1 358.3 384.2 C352.6 386.3 350.8 386.4 295 386.9 L237.5 387.5 237.2 528 C236.8 681.1 236.9 681.5 242.5 698 C253.2 729.6 279 755.5 309.5 765.4 C326.2 770.8 328.8 770.9 403.2 770.9 C457.5 770.9 472 770.7 472 769.7 C472 769 472.1 709.5 472.2 637.5 C472.4 514.6 472.6 506.2 474.2 502 C477.6 493.3 479 491.2 484.3 485.8 C489.6 480.3 493.2 478.2 502.4 474.8 C507.2 473 514.8 472.9 664.5 473 C818.2 473 821.6 473 826.9 474.9 C841.6 480.3 852.1 492.7 855 508.1 C855.6 511.8 855.9 565.4 855.7 667.5 L855.5 821.5 853.3 827.1 C847.4 842.4 835.7 852.4 820.5 855 C813.4 856.2 339.4 856.3 327.2 855.1 M557.4 769.7 C557.2 769 557.1 721 557.2 663 L557.5 557.5 664 557.5 L770.5 557.5 770.2 663.7 L770 770 664 770.5 C579.7 770.8 557.8 770.7 557.4 769.7 M88.2 195.2 L88.5 88.5 194.1 88.2 C282.2 88 299.9 88.2 300.8 89.3 C301.7 90.3 301.8 118.4 301.5 195.8 L301 301 194.5 301.5 L88 302 88.2 195.2 M507.5 386.1 C499.6 384.8 491.6 380.5 485 374.1 C477.9 367.1 474.3 359.8 473 349.9 C471.6 339.5 471.6 47.6 473 39 C475.8 20.8 490.2 6.8 509.1 3.9 C513.1 3.2 572.1 3 668.5 3.2 L821.5 3.5 827.3 5.8 C834.8 8.8 844.6 16.3 848.3 21.7 C849.8 24.1 852.1 28.6 853.3 31.7 L855.5 37.5 855.7 191.7 C856 357.2 856.2 351.3 851.1 363.1 C848.9 368.3 839 378.9 833.9 381.5 C824.9 386.1 831.1 385.9 667.5 386.5 C582.5 386.7 510.5 386.6 507.5 386.1 M553 259.7 C553 244.7 557.1 215.1 561.5 197.5 C570.1 163.7 582.6 144.5 602.5 134.9 C617.9 127.4 615 127.6 695.7 127.2 C747.2 126.9 768.5 127.1 769.9 127.9 C771.9 129 772 129.7 771.7 147.7 L771.5 166.5 698.5 167 L625.5 167.5 620.7 169.8 C614.5 172.8 609.7 178.5 604.9 188.5 C600.8 196.9 596 213.8 596 219.6 L596 223 608 223 C614.6 223 644.6 223 674.7 223 L729.5 223 729.5 218.2 L729.5 213.5 705.5 213.5 C689.5 213.5 681.5 213.1 681.3 212.4 C680.9 211.4 696.2 189.1 698.1 187.9 C699.7 186.8 768.9 187.5 770 188.6 C770.6 189.2 770.8 202.1 770.5 226.3 L770 263 661.5 263.5 L553 264 553 259.7 "/>
 </g>
 <g fill="#f06234" fill-rule="evenodd">
  <path d="M327.2 855.1 C301 852.4 280.4 846.7 259.6 836.4 C213.2 813.2 178.2 772.9 162.1 724.1 C156.7 707.9 154 693.6 152.9 675.5 C152.4 667.2 152 598.9 152 523.7 L152 387 99.2 386.9 C69.2 386.9 43.4 386.5 39.5 385.9 C35.6 385.3 30.1 383.8 27.2 382.5 C20.6 379.5 12.1 371.5 8.6 365.1 C2.7 354.1 2.9 362.7 3 195 C3 65.6 3.2 40.5 4.4 35.4 C7.6 22 16.7 11.7 30.5 6.2 L37.5 3.5 195 3.5 L352.5 3.5 358.2 5.8 C367.4 9.5 377 17.7 381.1 25.3 C386.4 35.3 386.1 27.1 386.4 187 C386.6 268.6 386.5 340 386.1 345.5 C385.5 353.1 384.8 356.8 382.7 361.2 C377.6 372.2 369.3 380.1 358.3 384.2 C352.6 386.3 350.8 386.4 295 386.9 L237.5 387.5 237.2 528 C236.8 681.1 236.9 681.5 242.5 698 C253.2 729.6 279 755.5 309.5 765.4 C326.2 770.8 328.8 770.9 403.2 770.9 C457.5 770.9 472 770.7 472 769.7 C472 769 472.1 709.5 472.2 637.5 C472.4 514.6 472.6 506.2 474.2 502 C477.6 493.3 479 491.2 484.3 485.8 C489.6 480.3 493.2 478.2 502.4 474.8 C507.2 473 514.8 472.9 664.5 473 C818.2 473 821.6 473 826.9 474.9 C841.6 480.3 852.1 492.7 855 508.1 C855.6 511.8 855.9 565.4 855.7 667.5 L855.5 821.5 853.3 827.1 C847.4 842.4 835.7 852.4 820.5 855 C813.4 856.2 339.4 856.3 327.2 855.1 M557.4 769.7 C557.2 769 557.1 721 557.2 663 L557.5 557.5 664 557.5 L770.5 557.5 770.2 663.7 L770 770 664 770.5 C579.7 770.8 557.8 770.7 557.4 769.7 M88.2 195.2 L88.5 88.5 194.1 88.2 C282.2 88 299.9 88.2 300.8 89.3 C301.7 90.3 301.8 118.4 301.5 195.8 L301 301 194.5 301.5 L88 302 88.2 195.2 "/>
  <path d="M507.5 386.1 C499.6 384.8 491.6 380.5 485 374.1 C477.9 367.1 474.3 359.8 473 349.9 C471.6 339.5 471.6 47.6 473 39 C475.8 20.8 490.2 6.8 509.1 3.9 C513.1 3.2 572.1 3 668.5 3.2 L821.5 3.5 827.3 5.8 C834.8 8.8 844.6 16.3 848.3 21.7 C849.8 24.1 852.1 28.6 853.3 31.7 L855.5 37.5 855.7 191.7 C856 357.2 856.2 351.3 851.1 363.1 C848.9 368.3 839 378.9 833.9 381.5 C824.9 386.1 831.1 385.9 667.5 386.5 C582.5 386.7 510.5 386.6 507.5 386.1 M553 259.7 C553 244.7 557.1 215.1 561.5 197.5 C570.1 163.7 582.6 144.5 602.5 134.9 C617.9 127.4 615 127.6 695.7 127.2 C747.2 126.9 768.5 127.1 769.9 127.9 C771.9 129 772 129.7 771.7 147.7 L771.5 166.5 698.5 167 L625.5 167.5 620.7 169.8 C614.5 172.8 609.7 178.5 604.9 188.5 C600.8 196.9 596 213.8 596 219.6 L596 223 608 223 C614.6 223 644.6 223 674.7 223 L729.5 223 729.5 218.2 L729.5 213.5 705.5 213.5 C689.5 213.5 681.5 213.1 681.3 212.4 C680.9 211.4 696.2 189.1 698.1 187.9 C699.7 186.8 768.9 187.5 770 188.6 C770.6 189.2 770.8 202.1 770.5 226.3 L770 263 661.5 263.5 L553 264 553 259.7 "/>
 </g>
</svg>